#define arrowl_width 20
#define arrowl_height 12
static unsigned char arrowl_bits[] = {
   0x00, 0x00, 0x00, 0x00, 0x00, 0x00, 0x00, 0x00, 0x00, 0x08, 0x00, 0x00,
   0x0c, 0x00, 0x00, 0xfe, 0xff, 0x07, 0x0c, 0x00, 0x00, 0x08, 0x00, 0x00,
   0x00, 0x00, 0x00, 0x00, 0x00, 0x00, 0x00, 0x00, 0x00, 0x00, 0x00, 0x00};
