#define cvfull_width 10
#define cvfull_height 10
static unsigned char cvfull_bits[] = {
   0x00, 0x00, 0xfe, 0x01, 0xfe, 0x01, 0x86, 0x01, 0x86, 0x01, 0x86, 0x01,
   0x86, 0x01, 0xfe, 0x01, 0xfe, 0x01, 0x00, 0x00};
