#define scale_width 10
#define scale_height 10
static unsigned char scale_bits[] = {
   0x00, 0x00, 0xce, 0x01, 0x86, 0x01, 0x02, 0x01, 0x00, 0x00, 0x00, 0x00,
   0x02, 0x01, 0x86, 0x01, 0xce, 0x01, 0x00, 0x00};
