/* Created with The GIMP */
#define cvset_width 10
#define cvset_height 10
static unsigned char cvset_bits[] = {
   0x00, 0x00, 0x7e, 0x00, 0x3e, 0x00, 0x1e, 0x00, 0x3e, 0x00, 0x76, 0x00,
   0xe2, 0x00, 0xc0, 0x01, 0x80, 0x01, 0x00, 0x00 };
