#define Dec_width 11
#define Dec_height 8
static unsigned char Dec_bits[] = {
   0x00, 0x00, 0x00, 0x00, 0xfe, 0x03, 0xfc, 0x01, 0xf8, 0x00, 0x70, 0x00,
   0x20, 0x00, 0x00, 0x00};
