#define 6_width 20
#define 6_height 12
static unsigned char 6_bits[] = {
   0x00, 0xf0, 0x01, 0x00, 0xe8, 0x00, 0x00, 0x18, 0x00, 0x00, 0x18, 0x00,
   0x00, 0xe8, 0x00, 0x00, 0xf0, 0x01, 0x00, 0xe8, 0x02, 0x00, 0x18, 0x03,
   0x00, 0x18, 0x03, 0x00, 0xe8, 0x02, 0x00, 0xf0, 0x01, 0x00, 0x00, 0x00};
