#define opt_width 11
#define opt_height 11
static unsigned char opt_bits[] = {
   0xff, 0x07, 0x01, 0x04, 0x11, 0x04, 0x31, 0x04, 0x71, 0x04, 0xf1, 0x04,
   0x71, 0x04, 0x31, 0x04, 0x11, 0x04, 0x01, 0x04, 0xff, 0x07};
