#define optbox_width 11
#define optbox_height 11
static unsigned char optbox_bits[] = {
   0xff, 0x07, 0x01, 0x04, 0x01, 0x04, 0x01, 0x04, 0x01, 0x04, 0x01, 0x04,
   0x01, 0x04, 0x01, 0x04, 0x01, 0x04, 0x01, 0x04, 0xff, 0x07};
