#define shexa_width 20
#define shexa_height 12
static unsigned char shexa_bits[] = {
   0x00, 0x00, 0x00, 0x80, 0x1f, 0x00, 0xc0, 0x3f, 0x00, 0xe0, 0x7f, 0x00,
   0xf0, 0xff, 0x00, 0xf8, 0xff, 0x01, 0xf0, 0xff, 0x00, 0xe0, 0x7f, 0x00,
   0xc0, 0x3f, 0x00, 0x80, 0x1f, 0x00, 0x00, 0x00, 0x00, 0x00, 0x00, 0x00};
