#define stipple7_width 20
#define stipple7_height 12
static unsigned char stipple7_bits[] = {
   0x88, 0x88, 0x08, 0x44, 0x44, 0x04, 0x22, 0x22, 0x02, 0x11, 0x11, 0x01,
   0x88, 0x88, 0x08, 0x44, 0x44, 0x04, 0x22, 0x22, 0x02, 0x11, 0x11, 0x01,
   0x88, 0x88, 0x08, 0x44, 0x44, 0x04, 0x22, 0x22, 0x02, 0x11, 0x11, 0x01};
