#define raydiagleft08_width 32
#define raydiagleft08_height 32
static unsigned char raydiagleft08_bits[] = {
   0x01, 0x01, 0x01, 0x01, 0x02, 0x02, 0x02, 0x02, 0x04, 0x04, 0x04, 0x04,
   0x08, 0x08, 0x08, 0x08, 0x10, 0x10, 0x10, 0x10, 0x20, 0x20, 0x20, 0x20,
   0x40, 0x40, 0x40, 0x40, 0x80, 0x80, 0x80, 0x80, 0x01, 0x01, 0x01, 0x01,
   0x02, 0x02, 0x02, 0x02, 0x04, 0x04, 0x04, 0x04, 0x08, 0x08, 0x08, 0x08,
   0x10, 0x10, 0x10, 0x10, 0x20, 0x20, 0x20, 0x20, 0x40, 0x40, 0x40, 0x40,
   0x80, 0x80, 0x80, 0x80, 0x01, 0x01, 0x01, 0x01, 0x02, 0x02, 0x02, 0x02,
   0x04, 0x04, 0x04, 0x04, 0x08, 0x08, 0x08, 0x08, 0x10, 0x10, 0x10, 0x10,
   0x20, 0x20, 0x20, 0x20, 0x40, 0x40, 0x40, 0x40, 0x80, 0x80, 0x80, 0x80,
   0x01, 0x01, 0x01, 0x01, 0x02, 0x02, 0x02, 0x02, 0x04, 0x04, 0x04, 0x04,
   0x08, 0x08, 0x08, 0x08, 0x10, 0x10, 0x10, 0x10, 0x20, 0x20, 0x20, 0x20,
   0x40, 0x40, 0x40, 0x40, 0x80, 0x80, 0x80, 0x80};
