#define stipple5_width 20
#define stipple5_height 12
static unsigned char stipple5_bits[] = {
   0x11, 0x11, 0x01, 0x22, 0x22, 0x02, 0x44, 0x44, 0x04, 0x88, 0x88, 0x08,
   0x11, 0x11, 0x01, 0x22, 0x22, 0x02, 0x44, 0x44, 0x04, 0x88, 0x88, 0x08,
   0x11, 0x11, 0x01, 0x22, 0x22, 0x02, 0x44, 0x44, 0x04, 0x88, 0x88, 0x08};
