#define stipple6_width 20
#define stipple6_height 12
static unsigned char stipple6_bits[] = {
   0x01, 0x01, 0x01, 0x02, 0x02, 0x02, 0x04, 0x04, 0x04, 0x08, 0x08, 0x08,
   0x10, 0x10, 0x00, 0x20, 0x20, 0x00, 0x40, 0x40, 0x00, 0x80, 0x80, 0x00,
   0x01, 0x01, 0x01, 0x02, 0x02, 0x02, 0x04, 0x04, 0x04, 0x08, 0x08, 0x08};
