#define aaa_width 22
#define aaa_height 174
static unsigned char aaa_bits[] = {
   0xb0, 0x00, 0x00, 0xb8, 0x01, 0x00, 0x28, 0x01, 0x00, 0x28, 0x01, 0x00,
   0xf8, 0x01, 0x00, 0xf0, 0x00, 0x00, 0x08, 0x00, 0x00, 0xf8, 0x07, 0x00,
   0xf0, 0x0f, 0x00, 0x08, 0x09, 0x00, 0x08, 0x09, 0x00, 0xf8, 0x09, 0x00,
   0xf0, 0x00, 0x00, 0x00, 0x00, 0x00, 0xf0, 0x01, 0x00, 0xf8, 0x01, 0x00,
   0x08, 0x00, 0x00, 0x18, 0x01, 0x00, 0xf0, 0x01, 0x00, 0xf8, 0x01, 0x00,
   0x08, 0x01, 0x00, 0xf0, 0x01, 0x00, 0xf8, 0x01, 0x00, 0x28, 0x01, 0x00,
   0x28, 0x01, 0x00, 0xe8, 0x01, 0x00, 0xc0, 0x00, 0x00, 0x00, 0x00, 0x00,
   0xf0, 0x01, 0x00, 0xf8, 0x01, 0x00, 0x08, 0x01, 0x00, 0x10, 0x00, 0x00,
   0xff, 0x01, 0x00, 0xff, 0x01, 0x00, 0x01, 0x01, 0x00, 0x98, 0x00, 0x00,
   0x98, 0x01, 0x00, 0x08, 0x01, 0x00, 0x08, 0x01, 0x00, 0xf8, 0x01, 0x00,
   0xf0, 0x00, 0x00, 0x00, 0x00, 0x00, 0x00, 0x00, 0x11, 0x00, 0x00, 0x21,
   0x00, 0x00, 0x21, 0x00, 0xc0, 0x3f, 0x00, 0xc0, 0x1f, 0x00, 0x00, 0x01,
   0x08, 0x00, 0x00, 0x18, 0x00, 0x03, 0x78, 0x00, 0x21, 0xc0, 0x09, 0x23,
   0xc8, 0x0f, 0x3e, 0xf8, 0x0e, 0x3f, 0x38, 0x08, 0x21, 0x08, 0x01, 0x20,
   0xf0, 0x01, 0x3e, 0xf8, 0x01, 0x3f, 0x28, 0x01, 0x25, 0x28, 0x01, 0x25,
   0xe8, 0x01, 0x3d, 0xc0, 0x00, 0x18, 0x00, 0x00, 0x00, 0xf0, 0x01, 0x3e,
   0x18, 0x00, 0x3f, 0xf0, 0x01, 0x21, 0x18, 0x00, 0x02, 0xf0, 0xe1, 0x3f,
   0xf8, 0xe1, 0x3f, 0x08, 0x21, 0x20, 0x00, 0x00, 0x13, 0x00, 0x00, 0x33,
   0x00, 0x00, 0x21, 0x00, 0x00, 0x21, 0x00, 0x00, 0x3f, 0x00, 0x00, 0x1e,
   0x00, 0x00, 0x00, 0xd8, 0x00, 0x00, 0xe8, 0x01, 0x00, 0x68, 0x01, 0x00,
   0x38, 0x01, 0x00, 0xb8, 0x01, 0x00, 0x90, 0x00, 0x00, 0x00, 0x00, 0x00,
   0xb0, 0x00, 0x1e, 0xb8, 0x01, 0x3f, 0x28, 0x01, 0x21, 0x28, 0x01, 0x21,
   0xf8, 0x01, 0x3f, 0xf0, 0x00, 0x1e, 0x00, 0x01, 0x00, 0xf8, 0x01, 0x11,
   0xf8, 0x00, 0x21, 0x08, 0x01, 0x21, 0x00, 0xc1, 0x3f, 0xf8, 0xc1, 0x1f,
   0xf8, 0x00, 0x01, 0x08, 0x00, 0x00, 0x00, 0x01, 0x00, 0x00, 0x01, 0x00,
   0xff, 0x01, 0x00, 0xff, 0x01, 0x00, 0x01, 0x01, 0x00, 0x01, 0x01, 0x00,
   0x00, 0x01, 0x00, 0xf0, 0x01, 0x11, 0xf8, 0x01, 0x21, 0x28, 0x01, 0x21,
   0x28, 0xc1, 0x3f, 0xe8, 0xc1, 0x1f, 0xc0, 0x00, 0x01, 0x08, 0x00, 0x00,
   0x18, 0x00, 0x03, 0x78, 0x00, 0x21, 0xc0, 0x01, 0x23, 0xe8, 0x01, 0x3e,
   0x78, 0x00, 0x3f, 0x18, 0x00, 0x21, 0x08, 0x00, 0x20, 0x00, 0x00, 0x3e,
   0x00, 0x00, 0x3f, 0x00, 0x00, 0x25, 0x00, 0x00, 0x25, 0x00, 0x00, 0x3d,
   0x00, 0x00, 0x18, 0x00, 0x00, 0x00, 0x18, 0x00, 0x3e, 0x08, 0x01, 0x3f,
   0x18, 0x01, 0x21, 0xf0, 0x01, 0x02, 0xf8, 0xe1, 0x3f, 0x08, 0xe1, 0x3f,
   0x00, 0x21, 0x20, 0xf8, 0x01, 0x13, 0xf8, 0x00, 0x33, 0x08, 0x01, 0x21,
   0x00, 0x01, 0x21, 0xf8, 0x01, 0x3f, 0xf8, 0x00, 0x1e, 0x08, 0x00, 0x00,
   0xf0, 0x00, 0x00, 0xf8, 0x01, 0x00, 0x08, 0x01, 0x00, 0x08, 0x01, 0x00,
   0xf8, 0x01, 0x00, 0xf0, 0x00, 0x00, 0x00, 0x00, 0x00, 0x88, 0x00, 0x3e,
   0x08, 0x01, 0x03, 0x08, 0x01, 0x3e, 0xfe, 0x01, 0x03, 0xfe, 0x00, 0x3e,
   0x08, 0x00, 0x3f, 0x00, 0x00, 0x21, 0xf0, 0x01, 0x1e, 0xf8, 0x01, 0x3f,
   0x08, 0x00, 0x21, 0x18, 0x01, 0x21, 0xf0, 0x01, 0x3f, 0xf8, 0x01, 0x1e,
   0x08, 0x01, 0x00, 0xf0, 0x00, 0x03, 0xf8, 0x01, 0x21, 0x08, 0x01, 0x23,
   0x08, 0x01, 0x3e, 0xf8, 0x01, 0x3f, 0xf0, 0x00, 0x21, 0x00, 0x20, 0x00,
   0xcc, 0x20, 0x21, 0xce, 0x21, 0x21, 0x02, 0xe1, 0x3f, 0x02, 0xc1, 0x3f,
   0xfe, 0x01, 0x21, 0xfc, 0x00, 0x21};
