#define svbar_width 20
#define svbar_height 12
static unsigned char svbar_bits[] = {
   0x00, 0x00, 0x00, 0x80, 0x1f, 0x00, 0x80, 0x1f, 0x00, 0x80, 0x1f, 0x00,
   0x80, 0x1f, 0x00, 0x80, 0x1f, 0x00, 0x80, 0x1f, 0x00, 0x80, 0x1f, 0x00,
   0x80, 0x1f, 0x00, 0x80, 0x1f, 0x00, 0x80, 0x1f, 0x00, 0x00, 0x00, 0x00};
