#define sx_width 20
#define sx_height 12
static unsigned char sx_bits[] = {
   0x00, 0x00, 0x00, 0x20, 0x20, 0x00, 0x40, 0x10, 0x00, 0x80, 0x08, 0x00,
   0x00, 0x05, 0x00, 0x00, 0x02, 0x00, 0x00, 0x05, 0x00, 0x80, 0x08, 0x00,
   0x40, 0x10, 0x00, 0x20, 0x20, 0x00, 0x00, 0x00, 0x00, 0x00, 0x00, 0x00};
