#define width6_width 20
#define width6_height 12
static unsigned char width6_bits[] = {
   0x00, 0x00, 0x00, 0xf0, 0x3f, 0x00, 0xf8, 0x7f, 0x00, 0xfc, 0xff, 0x00,
   0xfe, 0xff, 0x01, 0xfe, 0xff, 0x03, 0xfe, 0xff, 0x07, 0x80, 0xff, 0x07,
   0x80, 0xff, 0x07, 0x80, 0xff, 0x07, 0x80, 0xff, 0x07, 0x00, 0x00, 0x00};
