#define wind1_width 20
#define wind1_height 12
static unsigned char wind1_bits[] = {
   0x00, 0x00, 0x00, 0x04, 0x00, 0x00, 0x4c, 0x00, 0x00, 0x98, 0x04, 0x00,
   0x38, 0x09, 0x00, 0x70, 0x12, 0x00, 0xf0, 0xff, 0x01, 0x00, 0x00, 0x00,
   0x00, 0x00, 0x00, 0x00, 0x00, 0x00, 0x00, 0x00, 0x00, 0x00, 0x00, 0x00};
