#define YDec_width 13
#define YDec_height 11
static unsigned char YDec_bits[] = {
   0x00, 0x00, 0x20, 0x04, 0x30, 0x06, 0x38, 0x07, 0xbc, 0x07, 0xfe, 0x07,
   0xbc, 0x07, 0x38, 0x07, 0x30, 0x06, 0x20, 0x04, 0x00, 0x00};
