#define zaxis1_width 20
#define zaxis1_height 12
static unsigned char zaxis1_bits[] = {
   0x00, 0x00, 0x00, 0x00, 0x06, 0x00, 0x00, 0x06, 0x00, 0x00, 0x06, 0x00,
   0x00, 0x06, 0x00, 0xfe, 0xff, 0x07, 0xfe, 0xff, 0x07, 0x00, 0x06, 0x00,
   0x00, 0x06, 0x00, 0x00, 0x06, 0x00, 0x00, 0x06, 0x00, 0x00, 0x00, 0x00};
