#define cvmove_width 10
#define cvmove_height 10
static unsigned char cvmove_bits[] = {
   0x00, 0x00, 0x30, 0x00, 0x78, 0x00, 0xb4, 0x00, 0xfe, 0x01, 0xfe, 0x01,
   0xb4, 0x00, 0x78, 0x00, 0x30, 0x00, 0x00, 0x00};
