#define 12_width 20
#define 12_height 12
static unsigned char 12_bits[] = {
   0x00, 0xf1, 0x01, 0x80, 0xe1, 0x02, 0x80, 0x01, 0x03, 0x80, 0x01, 0x03,
   0x00, 0xe1, 0x02, 0x00, 0xf0, 0x01, 0x00, 0xe9, 0x00, 0x80, 0x19, 0x00,
   0x80, 0x19, 0x00, 0x80, 0xe9, 0x00, 0x00, 0xf1, 0x01, 0x00, 0x00, 0x00};
