#define grey06_width 32
#define grey06_height 32
static unsigned char grey06_bits[] = {
   0x41, 0x10, 0x04, 0x41, 0x10, 0x04, 0x41, 0x10, 0x04, 0x41, 0x10, 0x04,
   0x41, 0x10, 0x04, 0x41, 0x10, 0x04, 0x41, 0x10, 0x04, 0x41, 0x10, 0x04,
   0x41, 0x10, 0x04, 0x41, 0x10, 0x04, 0x41, 0x10, 0x04, 0x41, 0x10, 0x04,
   0x41, 0x10, 0x04, 0x41, 0x10, 0x04, 0x41, 0x10, 0x04, 0x41, 0x10, 0x04,
   0x41, 0x10, 0x04, 0x41, 0x10, 0x04, 0x41, 0x10, 0x04, 0x41, 0x10, 0x04,
   0x41, 0x10, 0x04, 0x41, 0x10, 0x04, 0x41, 0x10, 0x04, 0x41, 0x10, 0x04,
   0x41, 0x10, 0x04, 0x41, 0x10, 0x04, 0x41, 0x10, 0x04, 0x41, 0x10, 0x04,
   0x41, 0x10, 0x04, 0x41, 0x10, 0x04, 0x41, 0x10, 0x04, 0x41, 0x10, 0x04,
   0x41, 0x10, 0x04, 0x41, 0x10, 0x04, 0x41, 0x10, 0x04, 0x41, 0x10, 0x04,
   0x41, 0x10, 0x04, 0x41, 0x10, 0x04, 0x41, 0x10, 0x04, 0x41, 0x10, 0x04,
   0x41, 0x10, 0x04, 0x41, 0x10, 0x04, 0x41, 0x10};
