#define mask1_width 20
#define mask1_height 12
static unsigned char mask1_bits[] = {
   0x00, 0x00, 0x00, 0x80, 0x0f, 0x00, 0x40, 0x10, 0x00, 0x20, 0x27, 0x00,
   0xa0, 0x2f, 0x00, 0xa0, 0x2f, 0x00, 0xa0, 0x2f, 0x00, 0x20, 0x27, 0x00,
   0x40, 0x10, 0x00, 0x80, 0x0f, 0x00, 0x00, 0x00, 0x00, 0x00, 0x00, 0x00};
