#define tstyle4_width 20
#define tstyle4_height 12
static unsigned char tstyle4_bits[] = {
   0x00, 0x00, 0x00, 0x00, 0x00, 0x04, 0x00, 0x00, 0x06, 0x00, 0x00, 0x07,
   0x00, 0x80, 0x07, 0xc0, 0xff, 0x07, 0xe0, 0xff, 0x07, 0xf0, 0xff, 0x07,
   0xf8, 0xff, 0x07, 0xfc, 0xff, 0x07, 0xfe, 0xff, 0x07, 0x00, 0x00, 0x00};
