#define valhl_width 20
#define valhl_height 12
static unsigned char valhl_bits[] = {
   0x00, 0x00, 0x00, 0x00, 0x60, 0x00, 0x00, 0x60, 0x00, 0x00, 0x60, 0x00,
   0x60, 0x60, 0x00, 0xf0, 0xf8, 0x01, 0xf8, 0xf1, 0x00, 0x60, 0x60, 0x00,
   0x60, 0x00, 0x00, 0x60, 0x00, 0x00, 0x60, 0x00, 0x00, 0x00, 0x00, 0x00};
