#define shbar_width 20
#define shbar_height 12
static unsigned char shbar_bits[] = {
   0x00, 0x00, 0x00, 0x00, 0x00, 0x00, 0x00, 0x00, 0x00, 0xf0, 0xff, 0x00,
   0xf0, 0xff, 0x00, 0xf0, 0xff, 0x00, 0xf0, 0xff, 0x00, 0xf0, 0xff, 0x00,
   0xf0, 0xff, 0x00, 0x00, 0x00, 0x00, 0x00, 0x00, 0x00, 0x00, 0x00, 0x00};
