#define tstyle3_width 20
#define tstyle3_height 12
static unsigned char tstyle3_bits[] = {
   0x00, 0x00, 0x00, 0x00, 0x00, 0x04, 0x00, 0x00, 0x06, 0x00, 0x00, 0x05,
   0x00, 0x80, 0x04, 0xc0, 0x7f, 0x04, 0x60, 0x40, 0x04, 0x50, 0x40, 0x04,
   0x48, 0x40, 0x04, 0x44, 0x40, 0x04, 0xfe, 0xff, 0x07, 0x00, 0x00, 0x00};
