#define tstyle2_width 20
#define tstyle2_height 12
static unsigned char tstyle2_bits[] = {
   0x00, 0x00, 0x00, 0x00, 0x00, 0x04, 0x00, 0x00, 0x02, 0x00, 0x00, 0x01,
   0x00, 0x80, 0x00, 0xc0, 0x7f, 0x00, 0x20, 0x00, 0x00, 0x10, 0x00, 0x00,
   0x08, 0x00, 0x00, 0x04, 0x00, 0x00, 0xfe, 0xff, 0x07, 0x00, 0x00, 0x00};
