#define contour2_width 20
#define contour2_height 12
static unsigned char contour2_bits[] = {
   0x00, 0x00, 0x00, 0xf0, 0x00, 0x00, 0x80, 0x00, 0x00, 0x80, 0x00, 0x00,
   0x80, 0x07, 0x00, 0x00, 0x04, 0x00, 0x00, 0x04, 0x00, 0x00, 0x3c, 0x00,
   0x00, 0x20, 0x00, 0x00, 0x20, 0x00, 0x00, 0xe0, 0x01, 0x00, 0x00, 0x00 };
