#define flyTO_width 15
#define flyTO_height 15
static unsigned char flyTO_bits[] = {
   0x00, 0x00, 0xc0, 0x00, 0xc0, 0x00, 0x00, 0x00, 0xc0, 0x00, 0xe0, 0x01,
   0xf0, 0x03, 0xc0, 0x00, 0xc0, 0x00, 0xc0, 0x00, 0xc0, 0x00, 0xc0, 0x00,
   0xc0, 0x00, 0xc0, 0x00, 0x00, 0x00};
