#define grey12_width 32
#define grey12_height 32
static unsigned char grey12_bits[] = {
   0x80, 0x80, 0x80, 0x80, 0x22, 0x22, 0x22, 0x22, 0x08, 0x08, 0x08, 0x08,
   0x00, 0x00, 0x00, 0x00, 0x80, 0x80, 0x80, 0x80, 0x22, 0x22, 0x22, 0x22,
   0x08, 0x08, 0x08, 0x08, 0x00, 0x00, 0x00, 0x00, 0x80, 0x80, 0x80, 0x80,
   0x22, 0x22, 0x22, 0x22, 0x08, 0x08, 0x08, 0x08, 0x00, 0x00, 0x00, 0x00,
   0x80, 0x80, 0x80, 0x80, 0x22, 0x22, 0x22, 0x22, 0x08, 0x08, 0x08, 0x08,
   0x00, 0x00, 0x00, 0x00, 0x80, 0x80, 0x80, 0x80, 0x22, 0x22, 0x22, 0x22,
   0x08, 0x08, 0x08, 0x08, 0x00, 0x00, 0x00, 0x00, 0x80, 0x80, 0x80, 0x80,
   0x22, 0x22, 0x22, 0x22, 0x08, 0x08, 0x08, 0x08, 0x00, 0x00, 0x00, 0x00,
   0x80, 0x80, 0x80, 0x80, 0x22, 0x22, 0x22, 0x22, 0x08, 0x08, 0x08, 0x08,
   0x00, 0x00, 0x00, 0x00, 0x80, 0x80, 0x80, 0x80, 0x22, 0x22, 0x22, 0x22,
   0x08, 0x08, 0x08, 0x08, 0x00, 0x00, 0x00, 0x00};
