#define MDec_width 8
#define MDec_height 11
static unsigned char MDec_bits[] = {
   0x00, 0x20, 0x30, 0x38, 0x3c, 0x3e, 0x3c, 0x38, 0x30, 0x20, 0x00};
