#define MInc_width 8
#define MInc_height 11
static unsigned char MInc_bits[] = {
   0x00, 0x04, 0x0c, 0x1c, 0x3c, 0x7c, 0x3c, 0x1c, 0x0c, 0x04, 0x00};
