#define size4_width 20
#define size4_height 12
static unsigned char size4_bits[] = {
   0x00, 0x00, 0x00, 0x00, 0x00, 0x00, 0x00, 0x00, 0x00, 0x00, 0x02, 0x00,
   0x00, 0x07, 0x00, 0x80, 0x0f, 0x00, 0x00, 0x07, 0x00, 0x00, 0x02, 0x00,
   0x00, 0x00, 0x00, 0x00, 0x00, 0x00, 0x00, 0x00, 0x00, 0x00, 0x00, 0x00};
