#define sizeRene_width 20
#define sizeRene_height 12
static unsigned char sizeRene_bits[] = {
   0x00, 0x00, 0x00, 0x00, 0x00, 0x00, 0x0e, 0x00, 0x02, 0x12, 0x00, 0x01,
   0x12, 0x00, 0x00, 0xd2, 0xb5, 0x03, 0x4e, 0xad, 0x02, 0xca, 0xad, 0x03,
   0x52, 0xa4, 0x00, 0xd2, 0xa5, 0x03, 0x00, 0x00, 0x00, 0x00, 0x00, 0x00};
