#define ssquare_width 20
#define ssquare_height 12
static unsigned char ssquare_bits[] = {
   0x00, 0x00, 0x00, 0xe0, 0x7f, 0x00, 0xe0, 0x7f, 0x00, 0xe0, 0x7f, 0x00,
   0xe0, 0x7f, 0x00, 0xe0, 0x7f, 0x00, 0xe0, 0x7f, 0x00, 0xe0, 0x7f, 0x00,
   0xe0, 0x7f, 0x00, 0xe0, 0x7f, 0x00, 0xe0, 0x7f, 0x00, 0x00, 0x00, 0x00};
