#define sstar_width 20
#define sstar_height 12
static unsigned char sstar_bits[] = {
   0x00, 0x00, 0x00, 0x00, 0x02, 0x00, 0x40, 0x12, 0x00, 0x80, 0x0a, 0x00,
   0x00, 0x07, 0x00, 0xe0, 0x3f, 0x00, 0x00, 0x07, 0x00, 0x80, 0x0a, 0x00,
   0x40, 0x12, 0x00, 0x00, 0x02, 0x00, 0x00, 0x00, 0x00, 0x00, 0x00, 0x00};
