#define fill00_width 20
#define fill00_height 12
static unsigned char fill00_bits[] = {
   0xff, 0xff, 0x0f, 0x01, 0xfe, 0x0f, 0x01, 0xfe, 0x0f, 0x01, 0x42, 0x08,
   0x01, 0x5a, 0x0b, 0x01, 0x5a, 0x0b, 0x01, 0x5a, 0x0b, 0x01, 0x5a, 0x0b,
   0x01, 0x42, 0x08, 0x01, 0xfe, 0x0f, 0x01, 0xfe, 0x0f, 0xff, 0xff, 0x0f};
