#define raydiagright08_width 32
#define raydiagright08_height 32
static unsigned char raydiagright08_bits[] = {
   0x80, 0x80, 0x80, 0x80, 0x40, 0x40, 0x40, 0x40, 0x20, 0x20, 0x20, 0x20,
   0x10, 0x10, 0x10, 0x10, 0x08, 0x08, 0x08, 0x08, 0x04, 0x04, 0x04, 0x04,
   0x02, 0x02, 0x02, 0x02, 0x01, 0x01, 0x01, 0x01, 0x80, 0x80, 0x80, 0x80,
   0x40, 0x40, 0x40, 0x40, 0x20, 0x20, 0x20, 0x20, 0x10, 0x10, 0x10, 0x10,
   0x08, 0x08, 0x08, 0x08, 0x04, 0x04, 0x04, 0x04, 0x02, 0x02, 0x02, 0x02,
   0x01, 0x01, 0x01, 0x01, 0x80, 0x80, 0x80, 0x80, 0x40, 0x40, 0x40, 0x40,
   0x20, 0x20, 0x20, 0x20, 0x10, 0x10, 0x10, 0x10, 0x08, 0x08, 0x08, 0x08,
   0x04, 0x04, 0x04, 0x04, 0x02, 0x02, 0x02, 0x02, 0x01, 0x01, 0x01, 0x01,
   0x80, 0x80, 0x80, 0x80, 0x40, 0x40, 0x40, 0x40, 0x20, 0x20, 0x20, 0x20,
   0x10, 0x10, 0x10, 0x10, 0x08, 0x08, 0x08, 0x08, 0x04, 0x04, 0x04, 0x04,
   0x02, 0x02, 0x02, 0x02, 0x01, 0x01, 0x01, 0x01};
