#define flyAROUND_width 15
#define flyAROUND_height 15
static unsigned char flyAROUND_bits[] = {
   0x00, 0x00, 0xe0, 0x03, 0xf0, 0x07, 0x18, 0x0c, 0x8c, 0x18, 0x86, 0x31,
   0xf6, 0x33, 0xf6, 0x37, 0xf6, 0x33, 0x86, 0x31, 0x8c, 0x18, 0x18, 0x0c,
   0xf0, 0x07, 0xe0, 0x03, 0x00, 0x00};
