#define valmm_width 20
#define valmm_height 12
static unsigned char valmm_bits[] = {
   0x00, 0x00, 0x00, 0xf8, 0x61, 0x00, 0xf8, 0x61, 0x00, 0x00, 0x60, 0x00,
   0x60, 0x60, 0x00, 0xf0, 0xf8, 0x01, 0xf8, 0xf1, 0x00, 0x60, 0x60, 0x00,
   0x60, 0x00, 0x00, 0x60, 0xf8, 0x01, 0x60, 0xf8, 0x01, 0x00, 0x00, 0x00};
