#define bound_width 20
#define bound_height 12
static char bound_bits[] = {
  0x00, 0x00, 0x00, 0x00, 0x00, 0x00, 0xFC, 0xFF, 0x03, 0x04, 0x00, 0x02, 
  0x04, 0x00, 0x02, 0x04, 0x00, 0x02, 0x04, 0x00, 0x02, 0x04, 0x00, 0x02, 
  0x04, 0x00, 0x02, 0xFC, 0xFF, 0x03, 0x00, 0x00, 0x00, 0x00, 0x00, 0x00, 
  };
