#define contour3_width 20
#define contour3_height 12
static unsigned char contour3_bits[] = {
   0x00, 0x00, 0x00, 0xf0, 0x07, 0x00, 0x00, 0x04, 0x00, 0x00, 0x04, 0x00,
   0x00, 0x04, 0x00, 0x00, 0x04, 0x00, 0x00, 0x04, 0x00, 0x00, 0x04, 0x00,
   0x00, 0x04, 0x00, 0x00, 0x04, 0x00, 0x00, 0xfc, 0x01, 0x00, 0x00, 0x00 };
