#define 3_width 20
#define 3_height 12
static unsigned char 3_bits[] = {
   0x00, 0xf0, 0x01, 0x00, 0xe0, 0x02, 0x00, 0x00, 0x03, 0x00, 0x00, 0x03,
   0x00, 0xe0, 0x02, 0x00, 0xf0, 0x01, 0x00, 0xe0, 0x02, 0x00, 0x00, 0x03,
   0x00, 0x00, 0x03, 0x00, 0xe0, 0x02, 0x00, 0xf0, 0x01, 0x00, 0x00, 0x00};
