#define label1_width 20
#define label1_height 12
static unsigned char label1_bits[] = {
   0x00, 0x00, 0x00, 0x00, 0x00, 0x00, 0x00, 0x00, 0x00, 0x00, 0x00, 0x00,
   0xc6, 0x18, 0x03, 0xd6, 0x5a, 0x03, 0xd6, 0x5a, 0x03, 0xc6, 0x18, 0x03,
   0x00, 0x00, 0x00, 0x00, 0x00, 0x00, 0x00, 0x00, 0x00, 0x00, 0x00, 0x00};
