#define label3_width 20
#define label3_height 12
static unsigned char label3_bits[] = {
   0x00, 0x00, 0x00, 0x00, 0x00, 0x00, 0x00, 0x00, 0x00, 0x00, 0x00, 0x00,
   0x60, 0x60, 0x00, 0x6e, 0x6f, 0x07, 0x6e, 0x6f, 0x07, 0x60, 0x60, 0x00,
   0x00, 0x00, 0x00, 0x00, 0x00, 0x00, 0x00, 0x00, 0x00, 0x00, 0x00, 0x00};
