#define optcheck_width 11
#define optcheck_height 11
static unsigned char optcheck_bits[] = {
   0xff, 0x07, 0x01, 0x04, 0x01, 0x05, 0x81, 0x05, 0xc1, 0x04, 0x65, 0x04,
   0x2d, 0x04, 0x39, 0x04, 0x11, 0x04, 0x01, 0x04, 0xff, 0x07};
