#define rayCasting_width 20
#define rayCasting_height 12
static unsigned char rayCasting_bits[] = {
   0x00, 0x00, 0x00, 0xc0, 0x7f, 0x00, 0x60, 0x70, 0x00, 0xf0, 0x5f, 0x00,
   0x10, 0x48, 0x00, 0x10, 0x48, 0x00, 0x10, 0x48, 0x00, 0x10, 0x48, 0x00,
   0x10, 0x68, 0x00, 0x10, 0x38, 0x00, 0xf0, 0x1f, 0x00, 0x00, 0x00, 0x00 };
