#define spline_width 20
#define spline_height 12
static unsigned char spline_bits[] = {
   0x00, 0x00, 0x00, 0x00, 0x00, 0x00, 0x00, 0xf0, 0x01, 0x00, 0x08, 0x02,
   0x00, 0x04, 0x04, 0x00, 0x04, 0x04, 0x02, 0x02, 0x00, 0x02, 0x02, 0x00,
   0x04, 0x01, 0x00, 0xf8, 0x00, 0x00, 0x00, 0x00, 0x00, 0x00, 0x00, 0x00};
