#define wind3_width 20
#define wind3_height 12
static unsigned char wind3_bits[] = {
   0x00, 0x00, 0x00, 0x00, 0x78, 0x00, 0x00, 0xde, 0x01, 0x80, 0x03, 0x03,
   0xc0, 0x78, 0x02, 0x60, 0xcc, 0x06, 0x30, 0x86, 0x04, 0x18, 0xc2, 0x06,
   0x08, 0x62, 0x02, 0x0c, 0x06, 0x03, 0x06, 0xdc, 0x01, 0x00, 0x70, 0x00};
