#define wind2_width 20
#define wind2_height 12
static unsigned char wind2_bits[] = {
   0x00, 0x00, 0x00, 0x00, 0x10, 0x00, 0x00, 0x30, 0x00, 0x00, 0x60, 0x00,
   0x00, 0xc0, 0x00, 0xf8, 0xff, 0x01, 0xf8, 0xff, 0x01, 0x00, 0xc0, 0x00,
   0x00, 0x60, 0x00, 0x00, 0x30, 0x00, 0x00, 0x10, 0x00, 0x00, 0x00, 0x00 };
