#define YInc_width 13
#define YInc_height 11
static unsigned char YInc_bits[] = {
   0x00, 0x00, 0x84, 0x00, 0x8c, 0x01, 0x9c, 0x03, 0xbc, 0x07, 0xfc, 0x0f,
   0xbc, 0x07, 0x9c, 0x03, 0x8c, 0x01, 0x84, 0x00, 0x00, 0x00};
