#define grey25_width 32
#define grey25_height 32
static unsigned char grey25_bits[] = {
   0x11, 0x11, 0x11, 0x11, 0x44, 0x44, 0x44, 0x44, 0x11, 0x11, 0x11, 0x11,
   0x44, 0x44, 0x44, 0x44, 0x11, 0x11, 0x11, 0x11, 0x44, 0x44, 0x44, 0x44,
   0x11, 0x11, 0x11, 0x11, 0x44, 0x44, 0x44, 0x44, 0x11, 0x11, 0x11, 0x11,
   0x44, 0x44, 0x44, 0x44, 0x11, 0x11, 0x11, 0x11, 0x44, 0x44, 0x44, 0x44,
   0x11, 0x11, 0x11, 0x11, 0x44, 0x44, 0x44, 0x44, 0x11, 0x11, 0x11, 0x11,
   0x44, 0x44, 0x44, 0x44, 0x11, 0x11, 0x11, 0x11, 0x44, 0x44, 0x44, 0x44,
   0x11, 0x11, 0x11, 0x11, 0x44, 0x44, 0x44, 0x44, 0x11, 0x11, 0x11, 0x11,
   0x44, 0x44, 0x44, 0x44, 0x11, 0x11, 0x11, 0x11, 0x44, 0x44, 0x44, 0x44,
   0x11, 0x11, 0x11, 0x11, 0x44, 0x44, 0x44, 0x44, 0x11, 0x11, 0x11, 0x11,
   0x44, 0x44, 0x44, 0x44, 0x11, 0x11, 0x11, 0x11, 0x44, 0x44, 0x44, 0x44,
   0x11, 0x11, 0x11, 0x11, 0x44, 0x44, 0x44, 0x44};
