#define scircle_width 20
#define scircle_height 12
static unsigned char scircle_bits[] = {
   0x00, 0x00, 0x00, 0x80, 0x0f, 0x00, 0xc0, 0x1f, 0x00, 0xe0, 0x3f, 0x00,
   0xe0, 0x3f, 0x00, 0xe0, 0x3f, 0x00, 0xe0, 0x3f, 0x00, 0xe0, 0x3f, 0x00,
   0xc0, 0x1f, 0x00, 0x80, 0x0f, 0x00, 0x00, 0x00, 0x00, 0x00, 0x00, 0x00};
