#define slight_width 20
#define slight_height 12
static unsigned char slight_bits[] = {
   0x00, 0x00, 0x00, 0x00, 0xe0, 0x00, 0x00, 0x3c, 0x00, 0x00, 0x1f, 0x00,
   0x80, 0x0f, 0x00, 0x00, 0x07, 0x00, 0x00, 0x0e, 0x00, 0x00, 0x1e, 0x00,
   0x00, 0x1f, 0x00, 0x80, 0x07, 0x00, 0xe0, 0x00, 0x00, 0x00, 0x00, 0x00 };
