#define zaxis0_width 20
#define zaxis0_height 12
static unsigned char zaxis0_bits[] = {
   0x00, 0x00, 0x00, 0xfe, 0xff, 0x07, 0xfe, 0xff, 0x07, 0x06, 0x00, 0x00,
   0x06, 0x00, 0x00, 0x06, 0x00, 0x00, 0x06, 0x00, 0x00, 0x06, 0x00, 0x00,
   0x06, 0x00, 0x00, 0x06, 0x00, 0x00, 0x06, 0x00, 0x00, 0x00, 0x00, 0x00};
