#define CLEAR_width 11
#define CLEAR_height 15
static unsigned char CLEAR_bits[] = {
   0x00, 0x00, 0x00, 0x00, 0x00, 0x00, 0x00, 0x00, 0x20, 0x00, 0xa8, 0x00,
   0x70, 0x00, 0xfc, 0x01, 0x70, 0x00, 0xa8, 0x00, 0x20, 0x00, 0x00, 0x00,
   0x00, 0x00, 0x00, 0x00, 0x00, 0x00};
