#define cvmenu_width 10
#define cvmenu_height 10
static unsigned char cvmenu_bits[] = {
   0x00, 0x00, 0x00, 0x00, 0xfe, 0x01, 0xfe, 0x01, 0xfe, 0x01, 0xfc, 0x00,
   0x78, 0x00, 0x30, 0x00, 0x00, 0x00, 0x00, 0x00};
