#define 24_width 20
#define 24_height 12
static unsigned char 24_bits[] = {
   0xf8, 0x08, 0x02, 0x70, 0x19, 0x03, 0x80, 0x19, 0x03, 0x80, 0x19, 0x03,
   0x70, 0xe9, 0x02, 0xf8, 0xf0, 0x01, 0x74, 0xe0, 0x02, 0x0c, 0x00, 0x03,
   0x0c, 0x00, 0x03, 0x74, 0x00, 0x03, 0xf8, 0x00, 0x02, 0x00, 0x00, 0x00};
