#define flyCIRCLE_width 15
#define flyCIRCLE_height 15
static unsigned char flyCIRCLE_bits[] = {
   0x00, 0x00, 0x00, 0x00, 0xd8, 0x03, 0x78, 0x0f, 0x38, 0x0c, 0x78, 0x18,
   0x78, 0x18, 0x00, 0x10, 0x0c, 0x18, 0x0c, 0x18, 0x18, 0x0c, 0x78, 0x0f,
   0xe0, 0x03, 0x00, 0x00, 0x00, 0x00};
