#define stipple8_width 20
#define stipple8_height 12
static unsigned char stipple8_bits[] = {
   0x80, 0x80, 0x00, 0x40, 0x40, 0x00, 0x20, 0x20, 0x00, 0x10, 0x10, 0x00,
   0x08, 0x08, 0x08, 0x04, 0x04, 0x04, 0x02, 0x02, 0x02, 0x01, 0x01, 0x01,
   0x80, 0x80, 0x00, 0x40, 0x40, 0x00, 0x20, 0x20, 0x00, 0x10, 0x10, 0x00};
