#define width5_width 20
#define width5_height 12
static unsigned char width5_bits[] = {
   0x00, 0x00, 0x00, 0x00, 0x00, 0x00, 0x00, 0x00, 0x00, 0xfe, 0xff, 0x07,
   0xfe, 0xff, 0x07, 0xfe, 0xff, 0x07, 0xfe, 0xff, 0x07, 0xfe, 0xff, 0x07,
   0x00, 0x00, 0x00, 0x00, 0x00, 0x00, 0x00, 0x00, 0x00, 0x00, 0x00, 0x00};
