#define arrowb_width 20
#define arrowb_height 12
static unsigned char arrowb_bits[] = {
   0x00, 0x00, 0x00, 0x00, 0x00, 0x00, 0x00, 0x00, 0x00, 0x08, 0x00, 0x01,
   0x0c, 0x00, 0x03, 0xfe, 0xff, 0x07, 0x0c, 0x00, 0x03, 0x08, 0x00, 0x01,
   0x00, 0x00, 0x00, 0x00, 0x00, 0x00, 0x00, 0x00, 0x00, 0x00, 0x00, 0x00};
