#define label2_width 20
#define label2_height 12
static unsigned char label2_bits[] = {
   0x00, 0x00, 0x00, 0x00, 0x00, 0x00, 0x00, 0x00, 0x00, 0x00, 0x00, 0x00,
   0x18, 0x86, 0x01, 0xda, 0xb6, 0x05, 0xda, 0xb6, 0x05, 0x18, 0x86, 0x01,
   0x00, 0x00, 0x00, 0x00, 0x00, 0x00, 0x00, 0x00, 0x00, 0x00, 0x00, 0x00};
