#define stipple3_width 20
#define stipple3_height 12
static unsigned char stipple3_bits[] = {
   0x88, 0x88, 0x08, 0x88, 0x88, 0x08, 0x88, 0x88, 0x08, 0x88, 0x88, 0x08,
   0x88, 0x88, 0x08, 0x88, 0x88, 0x08, 0x88, 0x88, 0x08, 0x88, 0x88, 0x08,
   0x88, 0x88, 0x08, 0x88, 0x88, 0x08, 0x88, 0x88, 0x08, 0x88, 0x88, 0x08};
