#define wind4_width 20
#define wind4_height 12
static unsigned char wind4_bits[] = {
   0x00, 0x00, 0x00, 0x00, 0x78, 0x00, 0x00, 0xde, 0x01, 0x00, 0x02, 0x03,
   0x3e, 0x78, 0x02, 0x20, 0xcc, 0x06, 0x10, 0x86, 0x04, 0x08, 0xc2, 0x06,
   0x04, 0x62, 0x02, 0x02, 0x06, 0x03, 0x3e, 0xdc, 0x01, 0x00, 0x70, 0x00 };
